<svg xmlns="http://www.w3.org/2000/svg" fill="none" viewBox="0 0 24 24" id="Lexical--Streamline-Svg-Logos" height="24" width="24">
  <desc>
    Lexical Streamline Icon: https://streamlinehq.com
  </desc>
  <path fill="#000000" d="M7.721425 13.923575h-1.589575v-0.5431h0.44375V9.909875h-0.47025V9.36675h1.172325v4.013725h0.44375v0.5431Zm2.989225 -0.907375c-0.026475 0.2605 -0.154525 0.4879 -0.38415 0.682175 -0.2296 0.1943 -0.5453 0.291425 -0.947125 0.291425 -0.432725 0 -0.788175 -0.125825 -1.06635 -0.377525 -0.278175 -0.2561 -0.417275 -0.6314 -0.417275 -1.12595 0 -0.4548 0.12585 -0.834525 0.37755 -1.1392 0.2561 -0.304675 0.61155 -0.457 1.06635 -0.457 0.410625 0 0.735175 0.123625 0.9736 0.3709 0.242875 0.24285 0.3665 0.551925 0.370925 0.92725 0 0.12365 -0.01325 0.2561 -0.03975 0.3974h-2.00685c0.039725 0.55635 0.304675 0.834525 0.7948 0.834525 0.2296 0 0.392975 -0.055175 0.4901 -0.165575 0.101575 -0.110375 0.1678 -0.2274 0.1987 -0.351025l0.589475 0.1126Zm-0.75505 -0.86765c0.017675 -0.176625 -0.024275 -0.342225 -0.12585 -0.49675 -0.097125 -0.158975 -0.262725 -0.23845 -0.496725 -0.23845 -0.21195 0 -0.373125 0.07065 -0.4835 0.21195 -0.1104 0.1413 -0.17885 0.3157 -0.205325 0.52325h1.3114Zm4.189475 1.775025h-1.424025v-0.5431h0.2848l-0.536475 -0.60935 -0.52985 0.60935h0.251675v0.5431h-1.331275v-0.5431h0.410625l0.86105 -0.927275 -0.914025 -0.960375h-0.337775v-0.5431h1.450475v0.5431h-0.278175l0.49675 0.5961 0.529875 -0.5961h-0.258325v-0.5431h1.2518v0.5431h-0.311275l-0.854425 0.89415 0.92065 0.9935h0.317925v0.5431Zm0.5916 -3.589825v-0.78155h0.721925v0.78155h-0.721925Zm1.18555 3.589825h-1.589575v-0.5431h0.44375v-1.881025h-0.47025v-0.549725h1.172325v2.43075h0.44375v0.5431Zm2.9407 -1.06635c-0.0309 0.264925 -0.1479 0.521025 -0.351025 0.7683 -0.203125 0.24285 -0.529875 0.364275 -0.98025 0.364275 -0.423875 0 -0.7705 -0.12805 -1.03985 -0.38415 -0.264925 -0.2561 -0.3974 -0.6292 -0.3974 -1.119325 0 -0.4813 0.136875 -0.86765 0.41065 -1.159075 0.278175 -0.291425 0.64025 -0.437125 1.086225 -0.437125 0.1766 0 0.353225 0.022075 0.52985 0.066225 0.176625 0.04415 0.351025 0.117 0.52325 0.218575l0.1192 0.834525 -0.5696 0.0596 -0.09935 -0.490125c-0.16075 -0.078875 -0.337525 -0.11965 -0.5166 -0.1192 -0.49455 0 -0.741825 0.33115 -0.741825 0.993475 0 0.644675 0.2539 0.967 0.761675 0.967 0.370925 0 0.5939 -0.225175 0.66895 -0.675575l0.5961 0.1126Zm0.495425 -1.688925c0.220775 -0.105975 0.41725 -0.178825 0.58945 -0.218575 0.172225 -0.03975 0.370925 -0.0596 0.5961 -0.0596 0.331175 0 0.602725 0.083875 0.814675 0.251675 0.21635 0.1678 0.324525 0.419475 0.324525 0.75505v1.3379c0 0.176625 0.072875 0.26495 0.218575 0.26495 0.03975 0 0.090525 -0.00885 0.15235 -0.0265l0.006625 0.390775c-0.145725 0.0839 -0.304675 0.125825 -0.476875 0.125825 -0.375325 0 -0.57845 -0.196475 -0.60935 -0.58945v-0.01325c-0.088325 0.154525 -0.21415 0.293625 -0.377525 0.41725 -0.158975 0.12365 -0.357675 0.18545 -0.5961 0.18545 -0.207525 0 -0.41285 -0.0618 -0.615975 -0.18545 -0.1987 -0.12805 -0.29805 -0.348825 -0.29805 -0.662325 0 -0.366475 0.145725 -0.607125 0.43715 -0.721925 0.291425 -0.119225 0.607125 -0.178825 0.947125 -0.178825 0.0839 0 0.17 0.0022 0.2583 0.006625 0.088325 0.0044 0.17 0.011025 0.245075 0.01985v-0.165575c0 -0.176625 -0.030925 -0.335575 -0.092725 -0.476875 -0.061825 -0.1413 -0.216375 -0.21195 -0.463625 -0.21195 -0.092725 0 -0.18105 0.006625 -0.26495 0.019875 -0.079475 0.01325 -0.15675 0.03975 -0.2318 0.079475l-0.119225 0.457 -0.5696 -0.0596 0.12585 -0.7418Zm1.616075 1.576325v-0.105975c-0.07725 -0.009075 -0.154525 -0.0179 -0.231825 -0.026475 -0.081375 -0.00895 -0.163175 -0.013375 -0.24505 -0.01325 -0.176625 0 -0.335575 0.0309 -0.476875 0.092725 -0.1369 0.061825 -0.205325 0.18545 -0.205325 0.3709 0 0.26935 0.1435 0.404025 0.4305 0.404025 0.1678 0 0.32675 -0.0596 0.476875 -0.178825 0.15015 -0.12365 0.234025 -0.304675 0.2517 -0.543125Zm2.775625 1.17895h-1.5896v-0.5431h0.443775V9.909875h-0.47025V9.36675h1.172325v4.013725h0.44375v0.5431Z" stroke-width="0.25"></path>
  <path fill="#76b6ff" d="M14.71875 9.547475h0.74905v0.7885H14.71875v-0.7885Z" stroke-width="0.25"></path>
  <path fill="#76b6ff" d="M1.0384525 11.597475h0.867335v0.39425H1.0384525v-0.39425Z" stroke-width="0.25"></path>
  <path fill="#000000" d="M2.1030275 11.597475h0.8673225v0.39425H2.1030275v-0.39425Z" stroke-width="0.25"></path>
  <path fill="#76b6ff" d="M3.167475 11.597475h0.354825v0.39425h-0.354825v-0.39425Z" stroke-width="0.25"></path>
  <path fill="#76b6ff" d="M1.0384525 12.228275h1.419275v0.39425h-1.419275v-0.39425Z" stroke-width="0.25"></path>
  <path fill="#76b6ff" d="M2.654775 12.228275h0.86735v0.39425h-0.86735v-0.39425Z" stroke-width="0.25"></path>
  <path fill="#000000" d="M1.0384525 12.859075h0.867335v0.39425H1.0384525v-0.39425Z" stroke-width="0.25"></path>
  <path fill="#76b6ff" d="M2.1030275 12.859075h0.8673225v0.39425H2.1030275v-0.39425Z" stroke-width="0.25"></path>
  <path fill="#000000" d="M3.167475 12.859075h0.354825v0.39425h-0.354825v-0.39425Z" stroke-width="0.25"></path>
  <path fill="#000000" d="M4.54725 10.2177v0.39425h-0.433675V14.239h0.433675v0.394225h-1.22215V14.239h0.39425V10.61195h-0.39425v-0.39425h1.22215Zm-1.025025 0.591375v0.39425H0.6442425v2.4443H3.522225v0.39425H0.25V10.809075h3.272225Zm1.37985 0v3.2328h-0.591375v-0.39425h0.197125v-2.4443h-0.197125v-0.39425h0.591375Z" stroke-width="0.25"></path>
</svg>